<?xml version="1.0" standalone="no"?>
<!DOCTYPE svg PUBLIC "-//W3C//DTD SVG 20010904//EN"
 "http://www.w3.org/TR/2001/REC-SVG-20010904/DTD/svg10.dtd">
<svg version="1.0" xmlns="http://www.w3.org/2000/svg"
 width="820.000000pt" height="1280.000000pt" viewBox="0 0 820.000000 1280.000000"
 preserveAspectRatio="xMidYMid meet">
<metadata>
Created by potrace 1.15, written by Peter Selinger 2001-2017
</metadata>
<g transform="translate(0.000000,1280.000000) scale(0.100000,-0.100000)"
fill="#000000" stroke="none">
<path d="M4030 12790 c-230 -22 -430 -63 -687 -141 -386 -116 -583 -241 -666
-421 l-22 -47 -40 7 c-22 4 -107 7 -190 7 -170 -1 -260 -19 -393 -80 -255
-118 -422 -337 -592 -775 -29 -74 -77 -198 -107 -275 -30 -77 -88 -205 -129
-284 l-74 -144 0 -174 c0 -260 38 -574 105 -866 52 -224 51 -217 35 -228 -8
-5 -33 -14 -55 -19 -73 -19 -101 -37 -138 -91 -73 -107 -84 -244 -32 -392 31
-89 66 -141 205 -302 178 -206 245 -312 305 -480 24 -64 86 -130 194 -204 100
-68 163 -132 182 -185 11 -31 17 -36 36 -31 18 4 23 1 23 -13 0 -19 29 -52 46
-52 5 0 43 -60 84 -132 91 -161 263 -423 354 -537 36 -46 64 -86 61 -89 -2 -3
-44 -11 -92 -19 -208 -33 -362 -100 -463 -202 -58 -58 -73 -82 -124 -196 -146
-324 -293 -565 -682 -1115 -103 -145 -204 -299 -234 -358 -50 -99 -105 -189
-293 -482 l-87 -134 -138 -67 c-192 -93 -232 -141 -232 -281 0 -39 -13 -97
-40 -183 -60 -188 -51 -259 36 -298 l39 -18 0 -167 c0 -145 3 -176 22 -238 45
-143 123 -217 251 -237 65 -10 70 -13 98 -55 32 -47 101 -104 158 -127 50 -21
132 -19 185 5 l43 20 32 -23 c28 -20 44 -22 166 -24 74 -1 165 -5 201 -9 59
-6 73 -4 121 18 102 47 175 146 204 277 30 132 6 252 -64 333 l-32 35 40 28
c89 62 180 183 228 303 23 60 26 81 27 197 1 122 3 134 29 185 44 84 133 238
245 418 55 90 133 219 171 287 66 114 94 154 105 144 12 -12 -57 -481 -156
-1059 -70 -413 -73 -421 -209 -630 -113 -174 -155 -265 -136 -295 12 -17 26
-20 105 -23 l91 -3 0 -102 c0 -181 -38 -298 -210 -657 -173 -360 -210 -479
-210 -689 0 -126 -18 -167 -92 -217 -89 -60 -221 -63 -364 -9 -37 14 -88 25
-114 25 -42 0 -52 -4 -75 -32 -28 -33 -28 -33 -22 -148 4 -63 9 -125 13 -138
6 -21 5 -22 -73 -22 -102 0 -190 -23 -380 -99 -83 -33 -172 -66 -197 -72 -49
-12 -55 -19 -30 -39 25 -21 65 -16 141 19 39 18 79 31 89 29 18 -3 18 -4 -2
-24 -12 -12 -48 -31 -80 -43 -33 -12 -165 -68 -295 -123 l-236 -101 -7 -75
c-9 -112 -7 -225 5 -282 l11 -50 1724 0 c1633 0 1725 1 1732 18 7 18 8 165 1
437 l-4 160 33 73 c32 68 33 74 18 96 -10 16 -32 28 -65 36 -60 14 -75 29 -63
61 5 14 5 37 1 54 -11 37 4 78 35 95 13 6 47 15 77 18 l54 7 33 63 c19 35 63
140 99 235 88 234 142 336 220 415 l63 64 0 102 c0 117 10 139 69 157 46 14
94 7 139 -21 46 -28 57 -62 37 -118 -28 -84 -23 -97 63 -183 75 -75 79 -80
144 -235 37 -88 96 -229 131 -314 l63 -155 39 -6 c58 -8 81 -23 99 -69 21 -52
20 -75 -3 -127 -21 -44 -62 -73 -106 -73 -29 0 -32 -12 -9 -31 39 -32 74 -141
74 -234 0 -34 -7 -115 -15 -180 -16 -126 -19 -261 -9 -314 l6 -31 1738 0 1737
0 12 191 c7 105 11 192 9 194 -4 4 -335 160 -383 180 -22 9 -78 30 -124 46
-95 33 -131 53 -131 74 0 22 18 19 97 -20 83 -40 117 -44 133 -15 13 24 23 19
-195 100 -192 72 -294 100 -398 107 -82 6 -88 7 -93 30 -4 14 3 60 15 103 29
106 28 135 -8 171 -27 26 -36 29 -94 29 -40 0 -110 -12 -180 -30 -189 -49
-273 -36 -336 50 -26 36 -28 47 -34 172 -14 287 -70 479 -209 726 -126 222
-178 354 -178 448 l0 39 78 0 c67 0 86 4 142 32 120 60 219 181 260 321 13 40
14 41 32 25 53 -48 60 -208 19 -407 -12 -54 -21 -116 -21 -137 0 -110 105
-198 236 -199 88 0 138 21 208 88 34 32 95 80 136 106 106 68 156 119 200 207
63 124 129 173 261 194 48 7 145 71 191 124 86 101 149 271 170 461 10 93 10
119 -4 182 -59 270 -226 511 -480 693 l-70 50 -348 601 c-416 719 -706 1237
-737 1319 -13 33 -33 85 -45 115 -94 243 -336 425 -593 447 l-74 6 48 71 c27
39 98 140 159 225 61 85 130 189 153 230 23 42 55 96 72 120 16 24 51 95 77
157 26 62 60 134 75 159 27 48 96 105 125 105 33 0 121 53 154 93 37 47 76
121 125 242 41 100 79 155 208 295 121 133 195 237 236 334 55 128 47 331 -16
420 -25 35 -81 61 -178 81 -40 9 -74 17 -76 19 -2 2 10 79 27 172 17 92 37
222 45 288 20 163 19 425 -2 546 -26 151 -25 162 20 184 28 13 75 20 178 26
151 9 216 30 246 76 13 21 11 24 -49 57 -111 62 -229 157 -364 291 -143 144
-242 264 -475 581 -342 464 -505 640 -753 806 -277 187 -615 314 -982 369
-160 24 -509 34 -664 20z m1779 -8119 c32 -47 116 -187 186 -311 70 -123 149
-257 176 -297 66 -97 65 -118 -4 -214 -32 -44 -65 -106 -83 -154 -36 -100 -36
-198 -1 -370 35 -166 44 -259 26 -253 -24 8 -107 119 -148 197 -51 99 -76 182
-96 322 -9 63 -43 278 -75 479 -54 333 -111 722 -110 753 1 18 62 -54 129
-152z"/>
</g>
</svg>
