<?xml version="1.0" standalone="no"?>
<!DOCTYPE svg PUBLIC "-//W3C//DTD SVG 20010904//EN"
 "http://www.w3.org/TR/2001/REC-SVG-20010904/DTD/svg10.dtd">
<svg version="1.0" xmlns="http://www.w3.org/2000/svg"
 width="1280.000000pt" height="960.000000pt" viewBox="0 0 1280.000000 960.000000"
 preserveAspectRatio="xMidYMid meet">
<metadata>
Created by potrace 1.15, written by Peter Selinger 2001-2017
</metadata>
<g transform="translate(0.000000,960.000000) scale(0.100000,-0.100000)"
fill="#000000" stroke="none">
<path d="M3770 9044 c-183 -31 -322 -126 -391 -268 -46 -94 -58 -136 -70 -236
-36 -330 -44 -421 -69 -778 -5 -68 -11 -140 -15 -160 -3 -20 -10 -98 -15 -172
-15 -203 -29 -352 -34 -367 -9 -23 -25 -14 -45 26 -26 51 -71 87 -151 123 -79
36 -203 48 -262 26 -45 -16 -182 -133 -197 -168 -6 -14 -22 -43 -36 -65 -35
-56 -77 -144 -121 -255 -20 -52 -59 -128 -86 -168 -26 -40 -48 -76 -48 -81 0
-4 -9 -16 -20 -26 -33 -30 -120 -163 -120 -183 0 -10 -7 -27 -15 -38 -8 -10
-15 -27 -15 -36 0 -10 -21 -42 -47 -71 -27 -30 -60 -73 -75 -98 -16 -24 -62
-86 -103 -138 -41 -52 -75 -100 -75 -107 0 -7 -10 -25 -23 -41 -28 -33 -49
-72 -72 -133 -27 -70 -45 -102 -87 -147 -21 -24 -38 -51 -38 -61 0 -10 -13
-36 -30 -58 -16 -21 -30 -46 -30 -54 0 -9 -13 -32 -30 -52 -16 -20 -39 -57
-50 -83 -11 -26 -32 -61 -45 -77 -14 -16 -25 -37 -25 -47 0 -10 -11 -28 -25
-41 -14 -13 -25 -29 -25 -36 0 -16 -94 -175 -137 -233 -18 -24 -33 -49 -33
-55 0 -7 -25 -36 -55 -66 -30 -30 -55 -59 -55 -65 0 -11 -81 -130 -147 -218
-24 -31 -43 -60 -43 -64 0 -5 -36 -57 -79 -116 -86 -116 -161 -258 -185 -350
-33 -128 -30 -238 15 -487 5 -30 12 -102 15 -160 3 -58 10 -118 15 -135 5 -16
12 -100 15 -185 3 -85 10 -163 16 -174 6 -11 12 -81 13 -157 1 -75 5 -140 8
-145 3 -5 8 -148 11 -319 9 -409 14 -495 32 -585 20 -94 20 -91 29 -230 4 -63
11 -136 15 -162 6 -28 5 -71 -1 -108 -10 -65 -53 -184 -75 -211 -22 -25 -44
-109 -44 -166 0 -44 -4 -56 -30 -82 -17 -16 -33 -45 -37 -63 -9 -48 -31 -85
-96 -158 -32 -36 -60 -76 -64 -89 -8 -32 -53 -98 -92 -135 -17 -17 -31 -36
-31 -43 0 -11 426 -13 2406 -13 l2405 0 42 33 c22 17 148 138 279 267 131 129
243 236 247 238 14 5 305 331 326 366 11 18 39 55 62 82 23 27 49 58 57 69 13
19 29 20 248 26 219 5 237 7 307 31 134 49 237 137 306 263 63 115 82 200 90
396 3 90 8 173 10 185 3 15 35 35 112 73 211 103 274 146 420 280 112 103 133
128 172 200 42 80 44 87 49 191 4 87 2 114 -12 140 -9 18 -16 43 -16 54 0 12
-7 31 -15 44 -9 12 -21 50 -27 84 -6 40 -19 72 -33 88 -13 14 -26 36 -30 50
-16 52 -172 227 -239 267 -39 24 -39 24 -186 20 -81 -2 -100 -5 -128 -25 -43
-31 -62 -23 -62 26 0 45 11 57 90 96 30 15 80 52 110 81 51 49 78 71 219 177
29 22 88 60 130 85 132 78 231 192 231 268 0 14 10 50 21 82 17 43 22 80 23
152 0 101 -3 110 -82 241 -36 59 -178 192 -232 217 -79 37 -190 43 -268 15
-31 -11 -75 -24 -97 -28 -22 -4 -52 -13 -67 -20 -60 -31 -58 -38 -58 239 l0
253 38 35 c33 32 58 50 114 84 9 5 38 25 65 44 26 18 87 49 135 67 110 43 139
60 352 207 21 15 45 27 53 27 21 0 125 66 172 109 83 77 94 238 27 385 -28 60
-138 174 -205 212 -25 15 -53 33 -61 40 -8 7 -63 25 -122 40 l-107 28 -89 -17
c-49 -9 -104 -17 -122 -17 -35 0 -120 -22 -182 -47 -20 -9 -41 -12 -47 -9 -6
4 -11 36 -11 70 0 63 0 64 45 102 177 151 264 253 285 334 6 25 16 58 22 73
24 63 -25 225 -102 332 -35 50 -120 109 -191 134 l-54 19 -6 479 c-4 406 -8
485 -21 525 -47 134 -140 239 -263 298 -110 52 -147 59 -370 70 -107 6 -284
15 -392 21 -409 21 -535 27 -788 38 -143 6 -316 16 -385 21 -69 6 -168 10
-221 10 -53 0 -152 4 -220 9 -139 11 -611 21 -649 15z m1415 -745 c930 -34
1691 -63 1693 -64 4 -3 -94 -6114 -98 -6119 -8 -6 -3770 101 -3777 108 -5 5
448 5805 474 6079 3 31 9 57 12 57 3 0 767 -27 1696 -61z m-2180 -3171 c-3
-35 -17 -204 -30 -377 -13 -172 -26 -315 -28 -317 -10 -11 -179 -93 -222 -108
-27 -10 -73 -31 -101 -47 -28 -16 -54 -29 -58 -29 -12 0 -5 26 14 50 40 50 86
127 122 200 44 92 88 189 88 195 0 2 16 37 36 77 66 135 117 295 109 343 -4
25 0 33 27 52 18 11 37 22 41 22 5 1 6 -27 2 -61z"/>
</g>
</svg>
